# xmcd
#
# Track frame offsets: 
#        150
#        11001
#        23263
#        35433
#        48155
#        57500
#        66708
#        79515
#        88964
#        102268
#        114471
#        127867
#        138707
#        150862
#        163070
#        175303
#        188862
#        201684
#        221965
#        235289
#        248862
#        262183
#        271584
#        285585
#        297214
#
# Disc length: 4188 seconds
#
# Revision: 0
# Processed by: cddbd v1.4PL0 Copyright (c) Steve Scherf et al.
# Submitted via: ExactAudioCopy v0.90a11
#
DISCID=72105a19
DTITLE=O Bonde Frenético da Pipo's - O Bonde Frenético da Pipo's
DYEAR=1900
DGENRE=
TTITLE0=Montagem é a Pipo's-MC Pé de Pano
TTITLE1=Montagem Bonde da Pipo's-MC Cruel
TTITLE2=Montagem Uh Tá Na Moda-Tati Quebra Barraco
TTITLE3=Montagem Dando Pá Pum-DJ's da Pipo's
TTITLE4=Montagem é Nois Remix-MC Geléia
TTITLE5=Montagem Sou da Pipo's-MC Galo
TTITLE6=Montagem Bonde do Chuck-MC Cruel
TTITLE7=Montagem Mulher de Bangu-SD Boys
TTITLE8=Megamix MC Geléia-MC Geléia
TTITLE9=Montagem Pressão-Bonde do Tigrão
TTITLE10=Montagem Pipo's é Nois de Novo-DJ's da Pipos
TTITLE11=Montagem Tá Na Moral-MC Bobo
TTITLE12=Montagem Fala Que é Nois-MC Geléia
TTITLE13=Montagem é o Bicho boladão-MC Alexandre
TTITLE14=Montagem CDD-Tati Quebra Barraco
TTITLE15=Montagem do Clone-Gaiola das Popozudas
TTITLE16=Montagem do Berrante-MC Alexandre
TTITLE17=RAP Quem Nunca Viu Vem Ver-MC Léozinho
TTITLE18=Montagem Princesinha 2001-DJ's da Pipos
TTITLE19=Montagem Bonanza-DJ's da Pipo's
TTITLE20=Montagem Os Muleques dos Muchachos-Os Muchachos
TTITLE21=Montagem Tango-DJ's da Pipos
TTITLE22=Montagem Expulsa-DJ's da Pipos
TTITLE23=RAP artista de Sinal-MC Mascote
TTITLE24=RAP Quero seu AMor-MC Marcinho e MC Michelle
EXTD=
EXTT0=
EXTT1=
EXTT2=
EXTT3=
EXTT4=
EXTT5=
EXTT6=
EXTT7=
EXTT8=
EXTT9=
EXTT10=
EXTT11=
EXTT12=
EXTT13=
EXTT14=
EXTT15=
EXTT16=
EXTT17=
EXTT18=
EXTT19=
EXTT20=
EXTT21=
EXTT22=
EXTT23=
EXTT24=
PLAYORDER=
